<svg version="1" xmlns="http://www.w3.org/2000/svg" width="853.333" height="853.333" viewBox="0 0 640.000000 640.000000"><path d="M525 4c0 3.6-.2 4-2.5 4-1.8 0-2.5.5-2.5 2 0 1.7-.7 2-4 2s-4 .3-4 1.9c0 1.7-.8 2-5.2 2.3l-5.3.3-.3 3.7c-.2 2.5-.8 3.8-1.8 3.8-.9 0-1.4 1.1-1.4 3.6 0 3-.8 4.3-5 8.1l-5 4.5V64h-8v4c0 4 0 4 3.9 4 2.2 0 4.1-.5 4.3-1.2.3-.9 2.6-.9 10.1 0 5.2.7 14.6 1.2 20.6 1.2H530v8l-7.2.2-7.3.2 6.3.3c3.4.2 6.2.9 6.2 1.4 0 .6-2 1-4.7.9-2.7-.2-6.4-.2-8.3 0l-3.5.2 4 1.3 4 1.2-6.6.7c-7.1.8-15.8-.8-17.2-3.1-.6-.9-3.6-1.3-11.5-1.3-11.5 0-17.1 1.1-19.8 3.7-2 2.1-24.1 3.8-26.1 2.1-.7-.6-1.3-2.7-1.3-4.8 0-4.5-1.8-10.2-3.7-11.3-.9-.5-1.3-3-1.3-7.5 0-6.9-2.2-15.2-4.4-16.4-.7-.4-1.9-2.6-2.6-5-.8-2.4-2-4.7-2.7-5.1-.7-.4-2-2.2-3-4-3.4-6.7-6.8-7.9-22.6-7.7-9.3.1-14.4.6-19 2-3.4 1-10.5 2.4-15.7 3-5.2.6-9.7 1.4-10 1.8-1.4 1.9-6 3.9-10.3 4.5-3.1.4-5.6 1.5-7.2 3.1-1.4 1.4-4 2.9-5.9 3.5-1.9.5-5 2-6.8 3.4-1.8 1.4-4.3 2.8-5.5 3.1-2.9.9-13.4 7.9-15.8 10.5-1 1.2-2.4 2.1-3.1 2.1-.7 0-2.2 1.3-3.4 3-1.2 1.6-3.1 3.3-4.3 3.6-2.2.6-14.1 13.8-15.3 16.8-.3.8-1.4 1.8-2.4 2.1-1 .3-2.8 2.1-3.9 4-1.7 2.9-2.4 3.4-5 3-4.1-.5-10.3 1.3-12.1 3.5-.8 1-4.2 2.6-7.5 3.5-3.3.9-6.7 2.3-7.5 3.1-.9.7-4 1.8-6.9 2.5-3.4.7-6.3 2.1-8.2 4-1.7 1.6-4.1 2.9-5.4 2.9-1.4 0-3.5 1-4.7 2.2-1.3 1.3-3.5 3-4.9 3.8-3.5 2-9.3 6.7-13.1 10.7-1.7 1.8-3.9 3.5-4.9 3.8-1.1.4-1.9 1.5-1.9 2.5 0 1.1-.8 2.4-1.8 2.9-1.6.8-4.4 3.6-14.9 14.5-1.8 1.9-3.5 4.6-3.9 6-.3 1.5-1.5 3.1-2.5 3.7-1.1.5-2.9 3-4.1 5.5-1.1 2.5-2.7 4.8-3.3 5.1-.7.2-1.8 2.4-2.5 4.9-.7 2.4-1.6 4.4-2.1 4.4-1.2 0-3.5 4.9-4.3 9.3-.4 2-1.5 4.5-2.6 5.5-1 .9-2.6 3.7-3.6 6.2s-2.6 5.6-3.6 6.9c-2.2 2.9-2.4 9.6-.4 10.4 1.8.7 3-.8 4.5-5.5.7-2 2.3-4.4 3.6-5.2 1.4-.9 2.8-2.9 3.1-4.4.4-1.5 2-4.3 3.6-6.2 1.5-1.9 2.8-4.3 2.8-5.3s1.1-2.8 2.5-4.1c1.4-1.3 3.2-4.2 4-6.6.8-2.4 2.2-4.8 3.1-5.4.8-.6 2.5-2.8 3.7-4.7 4.6-7.6 8.9-13.9 9.4-13.9.3 0 1.7 1.1 3.2 2.6 2.2 2.1 3.8 2.6 9.6 2.9 7 .3 10.5-1 10.5-3.9 0-2.6-6-4.8-12.3-4.4-5.2.2-6.2 0-6.5-1.4-.2-.9.8-2.7 2.2-3.9 1.4-1.3 2.6-2.8 2.6-3.5 0-1.3 13.2-14.9 18.6-19.2 1.6-1.3 4.9-3.9 7.2-5.7 2.4-1.9 5-3.5 5.7-3.5.7 0 2.8-1.4 4.6-3 1.9-1.9 4.1-3 5.3-2.8 2.9.4 6.4 7.9 5.9 12.7-.3 2.9.3 4.4 2.8 7.3 1.7 2.1 3.9 3.8 5 3.8 2.3 0 7.6 2.6 9.7 4.6.7.8 3.1 1.7 5.3 2 2.2.4 5.5 1.7 7.3 2.9 1.8 1.2 5.5 3 8.2 4 2.7 1 5.6 2.4 6.5 3.2 2.3 1.9 7.5 1.6 9.6-.6 1-1 3.6-2.5 5.8-3.2 2.2-.8 5.1-2.1 6.5-3.1 3.7-2.6 10-3.7 23.7-4.5 14-.7 23.2.7 27.8 4.1 1.7 1.3 4 2.6 5.2 3 2.4.8 13 9 14.9 11.6.7.8 2.4 2.8 3.9 4.5 1.5 1.6 3.4 4.6 4.2 6.5.8 1.9 2.2 4.3 3 5.2.9 1 2.4 4.6 3.4 8 1 3.5 2.6 8.3 3.6 10.8 1.6 4 1.8 7.9 1.8 33 0 25.3-.2 29-1.9 33-1 2.5-2.6 7.9-3.5 12.1-.9 4.1-2.7 9.1-3.8 11-1.2 1.9-2.7 5.4-3.3 7.9-.7 2.5-2 5.6-3 7-.9 1.4-2.5 4.7-3.5 7.3-1 2.6-2.2 5-2.6 5.3-.5.3-2 2.9-3.4 5.7-6.2 12.6-12 20.5-25.9 35.1-3.6 3.8-6.6 7.2-6.6 7.6 0 .7-6.1 3-8 3-.8 0-3.1 1.2-5.1 2.6-3.7 2.5-4 2.6-19.1 2.2-14-.3-15.6-.5-19.1-2.7-6.9-4.2-13-.9-18 10-.9 2-2.8 4.4-4.2 5.3-1.3.9-2.8 2.9-3.1 4.4-.4 1.5-2.2 4.7-4.1 7.1-1.8 2.4-3.3 5-3.3 5.7 0 .8-.3 1.4-.7 1.4-.5 0-2.7 2.9-5.1 6.3-4.6 6.9-16.4 21-22.4 26.8-2.1 2-3.8 4-3.8 4.6 0 .5-1.1 1.5-2.5 2.1-1.4.6-2.5 1.6-2.5 2.2 0 1.6-13.3 9.8-18.7 11.6-4.2 1.4-5.8 1.4-9.9.4-2.7-.6-6.4-1.4-8.2-1.7-2.1-.3-3.6-1.3-4.1-2.6-.5-1.3-2.3-2.4-5.4-3.2-5.1-1.3-5.7-1.1-5.7 1.6 0 2.2 2.9 3.9 6.4 3.9 1.6 0 3.2 1 4.6 3 1.3 1.9 3.3 3.2 5.6 3.6 2.7.5 4 1.6 6 4.9 2.1 3.7 2.3 4.8 1.5 8.5-.5 2.3-1.6 4.9-2.5 5.9-.8.9-2.2 5-3.1 9.1-.9 4.1-2.4 9.8-3.5 12.7-1.1 2.9-2.4 9.2-3 14-.6 4.8-2.1 13.3-3.4 18.8-1.4 5.5-2.7 14.5-3.1 20-1 16.5-1.5 20.6-2.5 22.5-3.3 6.2-4.2 11.6-3.4 20 .4 4.7.8 15 .9 23 .1 8 .5 15.5.9 16.7.7 2.2 1.2 2.3 11.1 2.3h10.4l.1-35.8c.1-40 1-50.1 5.4-57.1 1.4-2.2 2.6-4.5 2.6-4.9 0-.5 2.2-3 5-5.6 4.8-4.5 5.1-4.6 11.4-4.6 6 0 6.9.3 10.2 3.2 2 1.8 4.1 3.9 4.8 4.6.6.8 2.6 3 4.4 5 1.7 1.9 3.3 4.1 3.3 4.9.1.7.3 1.7.4 2.3.1.5.3 1.6.4 2.4 0 .7 1.2 2.9 2.5 4.8s2.9 5.9 3.6 8.9c.7 3 2.1 7.1 3.2 9.2 1 2.1 2.4 7.5 2.9 12 .6 4.5 2 12 3.1 16.7 3.8 16 4.4 24 2.2 31.8l-.6 2.2h61.1c48.2 0 61.1-.3 61.1-1.3 0-.6-.9-2.6-2-4.4-1.3-2.2-2.4-7.4-3.6-16.5-.9-7.3-2.2-14.4-2.9-15.8-.7-1.4-2-6.6-3-11.5-.9-5-2.5-10.8-3.5-13-1.1-2.2-2.4-6.4-3-9.4-.6-3-1.9-6.8-2.9-8.5-1.1-1.7-2.6-5.7-3.4-8.8-.8-3.1-2.4-6.9-3.6-8.4-1.1-1.5-2.6-4.4-3.1-6.6-.6-2.1-2.2-5.5-3.6-7.5s-2.4-4.6-2.2-5.8c.3-1.8 1-2 7.3-1.9 4.6.1 8.6.9 11.7 2.2 2.6 1.2 7.5 2.4 11 2.7 7.8.8 13.3 2.1 17.8 4.3 2.6 1.2 8.7 1.9 23.3 2.6 22.8 1.1 36.1.1 42.3-3.1 2.1-1.1 5.7-2.3 7.9-2.7 10.9-2.1 21.5-12.1 29.4-27.9 2.9-5.8 5.9-11.1 6.7-11.8.8-.6 1.9-2.9 2.4-5 .6-2.1 1.9-4.7 2.9-5.6 1.8-1.9 3.5-5.7 4.6-10.8.4-1.7 1.4-3.9 2.4-5s2.5-4.7 3.4-7.9c.9-3.3 2.7-7.1 4-8.5 1.3-1.4 3-4.5 3.7-6.9.7-2.4 1.9-4.6 2.6-5 1.9-1.1 4.4-8.8 4.4-13.8 0-3 .6-4.9 2-6.2 2.1-2 4-9.8 4-16.8 0-3.1.6-5 2-6.4 1.1-1.1 2-3 2-4.3.1-3.6 3.2-8.4 7.7-11.6 2.4-1.7 4.7-3.1 5.3-3.1.5 0 1-.4 1-.9 0-1.4 4.4-5.6 8-7.7 4.2-2.3 6-3.9 6-5.3 0-.5 1.2-1.1 2.7-1.3 2.1-.2 2.9-1 3.5-3.6.6-2.1 1.7-3.6 3.3-4.2 1.5-.6 2.5-1.7 2.5-2.9 0-1.1 1-2.8 2.3-3.8 1.2-1 2.8-3.2 3.6-4.8 2.5-5.5 2.9-6 4.5-5.7 1 .2 1.7-.7 2.1-2.5 1.4-6.7 2.6-10.1 4-11.3.8-.7 1.5-2.1 1.5-3.1s.5-2.1 1-2.4c.6-.3 1-1.4 1-2.4s1.1-2.8 2.4-4c1.4-1.3 2.8-4 3.1-6.2.4-2.2 1.7-5.2 2.9-6.7 1.3-1.5 3.1-5 4-7.8.9-2.9 2.6-6 3.6-6.9 1.1-1 2-3 2-4.4 0-3.6 1.9-10.1 2.9-10.1 1.3 0 2.1-2.4 4.2-12.3 1-4.8 2.5-9.4 3.3-10.2.8-.9 1.7-4.4 2-8.2.7-8.1 2.6-15.9 5.4-22.8 1.2-2.8 2.4-6.3 2.7-7.8.7-3.6 3.1-4.5 6.7-2.4l2.8 1.6V0H525v4zM375.6 58.2c3.2 1.5 3.1 2.6-2 22.3-.8 3.3-1.5 7.7-1.6 9.9 0 3.1-.7 4.5-3.6 7.2-3.8 3.6-6.7 4.2-9.9 2.1-3-2-14.6-3.6-28-3.8-8.9-.2-13-.7-16-2-2.2-1-4.8-2-5.8-2.3-3-1-3.8-4.8-1.4-7.4 1.1-1.2 2.4-2.2 2.8-2.2.6 0 3.4-2.5 10.9-9.6 1.4-1.3 3.4-2.4 4.6-2.4 1.1 0 4.1-1.4 6.7-3 2.6-1.7 5.9-3 7.3-3 3.7 0 11.6-2.1 14.3-3.9 4.4-2.8 17.2-3.9 21.7-1.9zM532 85c0 .6-2.6.9-6.2.8-6.2-.1-6.3-.1-1.8-.8 6.9-1.1 8-1.1 8 0zm-13 42.4c10.1 1.4 17 3.3 17 4.7 0 .4 1.5 1 3.4 1.3 1.9.4 4 1.3 4.6 2.1 1.8 2.2.6 7.8-2.4 11.8-1.4 1.9-2.6 4-2.6 4.8 0 .8-1.4 3.4-3 5.9-1.6 2.5-3 5-3 5.6 0 .6-1.9 4-4.2 7.5-7.7 11.8-8.6 13.4-9.2 16.2-.4 1.5-1.8 3.7-3.1 4.9-1.4 1.2-2.5 2.8-2.5 3.5 0 1.5-1.7 4.7-4.2 7.7-1.8 2.2-5 7.8-9.5 16.3-2.6 5-4.6 6.3-8.5 5.5-2.2-.4-4.8-6.3-5.7-12.8-.5-3.4-1.6-6.3-3-7.8-1.2-1.3-2.7-4.1-3.2-6.2-.6-2.1-1.9-4.8-2.9-5.9-1-1.1-2.6-3.7-3.5-5.9-1-2.1-4.6-6.7-7.9-10.1-10.6-10.9-17.6-18.7-17.6-19.6 0-.4-1-1.3-2.1-2-3.2-1.7-11.2-7.9-12.5-9.7-.9-1.2-.7-2.3.9-5 2.3-3.9 6.9-6.2 12.3-6.2 2.1 0 6.4-1.3 9.8-3 4.7-2.2 8.4-3.1 15.6-3.8 14.9-1.4 35.5-1.3 47 .2z"/><path d="M313 199.8c-2.9.5-12 6.9-12 8.5 0 .6.7 1.8 1.5 2.7 1.3 1.5 2.9 1.7 10.4 1.2 10.2-.5 12.6.3 13.5 5.1.3 1.8 1.2 4.2 1.9 5.2 1.2 1.5 1.8 1.6 5 .6 3.3-1.1 3.7-1.6 3.7-4.6 0-2.4-1-4.6-3.2-7.2-1.8-2.1-3.6-3.9-3.9-4.1-.4-.2-3.1-1.8-6.1-3.6-6.6-4-7.6-4.3-10.8-3.8zM130.2 227.1c-1.1 2.8-.2 8.1 1.2 7.6 1.5-.5 2.1-9.7.6-9.7-.6 0-1.4.9-1.8 2.1zM123.6 238.2c-.9 1.2-1.6 2.8-1.6 3.5 0 .6-.9 1.5-2 1.8-1.1.4-2.6 1.8-3.4 3.3-.8 1.5-2.5 3.9-3.9 5.4-1.4 1.6-3 3.4-3.4 4.2-.5.8-5.2 6.1-10.6 11.8-5.4 5.7-10.9 11.4-12.2 12.8-1.3 1.4-3.1 4.4-4 6.7-1 2.4-2.1 4.3-2.5 4.3-.5 0-1.8 2.6-3 5.7-1.2 3.2-2.8 6.8-3.6 8-.8 1.2-2.1 4.8-2.9 8-.8 3.2-2.3 6.9-3.3 8.3-2.5 3.4-3.4 7.3-3.3 14.9 0 5.5.4 6.8 2.6 9.1 1.4 1.5 3.2 5.1 4 8 .8 2.9 2.3 6.2 3.4 7.4 1.2 1.2 2.1 3.2 2.1 4.5 0 2.3 3.3 9.6 4.8 10.5.5.3 1.5 2.5 2.2 5 .7 2.4 2.5 5.7 4.1 7.2 1.6 1.5 2.9 3.2 2.9 3.7 0 1.6 9.2 11.5 11.2 12 1.1.3 2.2 1.4 2.5 2.5.3 1.1 1.6 2.3 2.9 2.6 1.5.4 2.4 1.4 2.4 2.6 0 1.1 1.2 2.7 2.8 3.7 2.6 1.7 4.4 3.3 11.4 10.1 1.8 1.7 3.9 3.2 4.6 3.2.7 0 3 1.7 5.2 3.7 6 5.8 10.6 9.3 12.2 9.3.8 0 2.9 1.3 4.7 2.9 1.8 1.6 4.7 3.1 6.4 3.4 5.4.8 5.9-3.1.7-5.3-1.5-.6-3.7-2.2-4.8-3.5-1.1-1.3-3.6-2.9-5.6-3.6-2-.7-3.6-1.7-3.6-2.2 0-1.1-2.1-3.1-4.8-4.6-2.2-1.2-4.9-3.4-10-8.2-1.5-1.4-3.7-2.9-4.9-3.3-2.6-.8-13.8-12-15.7-15.7-.7-1.5-2.1-3.5-3-4.5-.9-1.1-3.5-4.2-5.6-6.9-2.2-2.8-4.7-5.7-5.5-6.6-.8-.8-2.1-3.1-2.9-5-.8-1.9-2.6-4.7-4-6.2s-2.6-3.5-2.6-4.4c0-2.9-3.1-8.1-5.2-8.6-1.9-.5-2-1.1-1.4-6.8.4-3.4 1.6-8.1 2.6-10.3 1-2.3 2.3-7.5 3-11.6.7-4.1 1.8-8.5 2.6-9.7.7-1.2 2.1-5.4 3-9.3 1.4-6.3 3.2-10.9 9-23.7.8-1.8 1.9-3.5 2.5-3.9.6-.3 1.9-2.5 3-4.8 3.4-7.5 7.9-14.9 9.8-16.2 1-.7 2.4-2.6 3-4.2.7-1.6 2.3-3.4 3.7-4 1.5-.7 2.4-2 2.4-3.4.1-7.5 4-9.2 5.1-2.3.6 3 .3 4.8-1.2 7.3-2.9 5-2.3 11.1 1.8 18.6 1.3 2.4 1.4 3.4.3 6.7-1.1 3.1-1 4.4.1 7.1 1.4 3.4 10.6 12.8 12.5 12.8.6 0 2.9 1.2 5 2.6 4.2 2.9 17 7.4 20.9 7.4 5.3 0 11.3-2.3 12.5-4.8 1.3-3 .3-15.4-1.4-17.7-1.4-2-3.8-1.2-5.1 1.7-1.5 3.3-2.9 3.2-6.9-.8-4.4-4.4-4.6-6.3-.7-7 6.1-1.3 3.9-6.8-3.1-7.9-2.4-.4-6-1.1-8-1.6l-3.7-.9 2.5-2.5c1.3-1.3 2.4-2.9 2.4-3.5 0-.6 1.2-2.7 2.7-4.7 2.4-3.1 2.7-4.6 3.1-12.4.5-10.3-.5-12.4-6.4-13.1-4-.5-4.8.2-6.3 5.7-1.5 5.4-2.1 6.1-5.9 6.8-3.6.7-8.2-.9-8.2-3 0-.8-1.3-2.2-3-3.1-1.7-1-3-2.7-3.2-4.1-.4-3.3-2.3-3.7-4.2-.9zM273 282.9c-6.9 1.4-8 3.5-2.2 4.6 5.8 1 8.2 3 8.2 6.9 0 8-3.9 13.5-9.6 13.6-5.1 0-6.9-2.9-6.9-11.3 0-6.5-.2-7.2-2-7.5-1.7-.2-2.9 1.4-6.4 8.1-4.3 8.3-4.3 8.4-4 17.3.4 8.4.6 9.2 4.2 14.6 5.7 8.4 8.4 9.8 19.9 9.8 8 0 9.9-.3 12-2 1.4-1.1 3.7-2.4 5.1-2.9 3.9-1.5 9.6-10.9 10.8-18 1.3-7.2 0-18.8-2.5-22.6-.9-1.4-4.1-4.3-7.1-6.5-4.4-3.3-6.5-4.1-10.7-4.4-2.9-.2-6.9-.1-8.8.3zm9.4 45.7c.9 3.3-.3 5.4-2.9 5.4-3.9 0-5.1-2.5-3.2-6.6 1.5-3 1.9-3.3 3.6-2.2 1.1.7 2.2 2.2 2.5 3.4z"/><path d="M168 285c0 .5.7 1 1.5 1s1.5-.5 1.5-1c0-.6-.7-1-1.5-1s-1.5.4-1.5 1zM129.8 340.2c-2.2 2.2-2.3 7.6-.4 12.1 2.3 5.2 9.6 12.3 14 13.5 2.1.6 4.6 1.8 5.5 2.6.9.7 3.4 1.9 5.6 2.5 4.2 1.2 32.2 1.5 35 .5 1.9-.8 4.5-5.5 4.5-8.3 0-3.8-6-8.6-13.7-11-4-1.2-7.5-2.5-7.8-3-.3-.6-3.1-1.7-6.3-2.6-3.1-.9-7.3-2.7-9.2-3.9-7.1-4.6-23.6-6-27.2-2.4zM615.3 340.7c-.7 1.6-1.7 4.1-2.3 5.7l-1.1 2.9-2.3-2.2c-2.1-2-2.3-2-3.8-.4-2.6 3-4 6.4-3.5 8.5.9 3.3-.3 4.8-3.8 4.8-3.9 0-4.8 1.6-3.5 6.1 1.1 3.7-.1 5.9-2.8 5.5-1.6-.3-4.1 1.9-4.2 3.6 0 .5.9.8 2 .8s2 .4 2 1c0 .5-1.8 1-4 1s-4 .4-4 1c0 .5-1.8 1-4 1-3.8 0-4 .2-4 3v3h-8c-6.9 0-8 .2-8 1.7 0 1.9-4.1 4.3-7.1 4.3-1.3 0-1.8 1.1-2.1 4.6-.3 4.1.5 6.9 1.4 4.4.1-.5 3.8 2.5 8.2 6.7 4.3 4.3 7.3 7.9 6.7 8.1-1.6.5-1.3 2.9.5 3.6.9.3 3.1.6 5 .6 2.7 0 3.4.4 3.4 2 0 1.1.7 2 1.4 2 1.6 0 10.1 5.4 11.1 7.1.4.5 2 .9 3.6.9 1.7 0 2.8.4 2.5.9-.4.5.7 2.1 2.4 3.4 1.7 1.5 3 3.5 3 4.9 0 1.4 1.1 3 3 4.3 1.6 1.1 2.5 2.2 1.9 2.5-.5.4.2 1.6 1.5 2.7 1.3 1.2 2.6 1.9 2.9 1.7.2-.2 1.2.5 2.2 1.6 2.1 2.3 4.5 2.6 4.5.6s3-1 6.9 2.5c1.9 1.6 3.7 2.9 4.2 2.9 1.5 0 2.2 4.5 2 12.5-.1 4.4.3 8.6.8 9.4.9 1.4 8.6 3.2 9.6 2.3.3-.3.5-32.6.5-71.9V341h-8c-6.4 0-8-.3-8-1.5 0-1.1-1.1-1.5-3.8-1.5-3.1 0-3.9.5-4.9 2.7zm-54.5 53.2c-1.3 2.1-2.8 1.9-2.8-.5 0-.8.9-1.4 2-1.4 1.7 0 1.9.3.8 1.9z"/><path d="M592 359c0 .5.5 1 1.1 1 .5 0 .7-.5.4-1-.3-.6-.8-1-1.1-1-.2 0-.4.4-.4 1zM581.5 479.6c-1.1.3-3.1 1.6-4.5 2.8-1.4 1.2-4.5 3.1-7 4.2-2.5 1-5.3 2.8-6.2 4-1 1.2-3 2.4-4.5 2.7-4.2.9-10.3 8.7-10.5 13.4-.1 4.4 3.9 19.4 7.3 27.1 2.2 5.1 2.3 5.5.8 9.6-1.9 5.3-.7 10.5 3.3 13.6 6.7 5.1 11 23.5 7.4 31.3-1.5 3.1-3.8 15.7-5.2 28.7-.3 3.5-1.4 8.2-2.4 10.5-.9 2.2-2 5.9-2.4 8.2l-.6 4.3h6.5c6.1 0 6.5-.1 6.5-2.3.1-6.5 2.2-21.1 3.9-26.8 1.1-3.5 2.7-11.6 3.5-17.9 1.7-13 4.3-19.5 8.2-21.1 1.5-.5 6.9-1.6 12.1-2.5 11.5-1.8 15.6-4.4 17.5-10.8.6-2.2 2.2-5.2 3.4-6.6 3-3.2 8-10 12.6-17 3.2-4.9 3.6-6 3.1-10.3-.3-2.6-.9-4.7-1.3-4.7s-1.5-2.6-2.4-5.8c-3.1-10.5-3.8-12.7-5.1-14.2-.7-.8-1.8-3.8-2.4-6.5-.7-2.8-2.3-6.4-3.7-8.2-1.3-1.7-2.4-3.6-2.4-4.1 0-1 1.1-1-18-1.6-8.5-.3-16.4-.3-17.5 0z"/></svg>